<svg xmlns="http://www.w3.org/2000/svg" width="32" height="32" viewBox="0 0 32 32">
  <g id="Group_44" data-name="Group 44" transform="translate(-3187 -440.917)">
    <rect id="Rectangle_148" data-name="Rectangle 148" width="32" height="32" rx="16" transform="translate(3187 440.917)" fill="#fdf8ff"/>
    <path id="Path_383" data-name="Path 383" d="M3077.825,457.6a2.285,2.285,0,0,0,1.088,1.5,5.087,5.087,0,0,0,2.556-.163,6.093,6.093,0,0,0,2.23-1.342,6.436,6.436,0,0,0,.871-4.967,4.918,4.918,0,0,0-1.813-2.737,12.156,12.156,0,0,0-2.429-.979,6.891,6.891,0,0,0-.87-.155s-.569-.05-.853-.044a14.683,14.683,0,0,0-3.166.2,13.525,13.525,0,0,0-2.382.761,10.657,10.657,0,0,0-3.345,2.48,11.42,11.42,0,0,0-2.1,4.384,17.485,17.485,0,0,0-.235,4.714,23.451,23.451,0,0,0,.848,4.454,8.23,8.23,0,0,0,.919,1.933,6.367,6.367,0,0,0,.751,1.04,7.5,7.5,0,0,0,1.292,1.22,12.792,12.792,0,0,0,1.794.97,5.973,5.973,0,0,0,1.929.4,13.393,13.393,0,0,0,2.94-.343,12.439,12.439,0,0,0,3.078-1.327,7.851,7.851,0,0,0,1.771-1.633,8.743,8.743,0,0,0,.9-1.395,6.86,6.86,0,0,0,.547-1.448,3.882,3.882,0,0,0,.1-1.2,3.236,3.236,0,0,0-.176-.863,1.237,1.237,0,0,0-.775-.66,1,1,0,0,0-.609,0,.56.56,0,0,0-.292.33c-.038.089-.2.527-.2.527s-.159.457-.267.667a5.514,5.514,0,0,1-.343.679,3.974,3.974,0,0,1-.59.775,5.745,5.745,0,0,1-.664.625,6.447,6.447,0,0,1-1.726,1.05,2.885,2.885,0,0,1-1.785.223,2.826,2.826,0,0,1-1.381-.7,9.367,9.367,0,0,1-1.258-1.77,11.134,11.134,0,0,1-.831-1.8,14.594,14.594,0,0,1-.707-2.982,23.389,23.389,0,0,1-.244-2.616,12.114,12.114,0,0,1,.516-3.417,5.925,5.925,0,0,1,.842-1.577,5,5,0,0,1,1.7-1.283,6.479,6.479,0,0,1,1.652-.536,9.148,9.148,0,0,1,1.3-.086,4.312,4.312,0,0,1,2.628.955,2.88,2.88,0,0,1,.729.8,2.819,2.819,0,0,1,.439,1.116c.011.461.129,1.051-.171,1.427s-.258.375-.547.472-.633-.3-.633-.3a2.254,2.254,0,0,0-.654-.429,1.72,1.72,0,0,0-1.041,0,2.434,2.434,0,0,0-1.1.837,2.614,2.614,0,0,0-.272.922,5.142,5.142,0,0,0-.028.752A2.569,2.569,0,0,0,3077.825,457.6Z" transform="translate(126.977 -3.069)" fill="#30043d"/>
  </g>
</svg>
