<svg xmlns="http://www.w3.org/2000/svg" width="421.1" height="412.84" viewBox="0 0 421.1 412.84">
  <g id="ID_Card-cuate" data-name="ID Card-cuate" transform="translate(-39.45 -49.5)">
    <g id="freepik--background-complete--inject-37">
      <g id="freepik--u5Zjqx--inject-37">
        <path id="Path_384" data-name="Path 384" d="M256.61,141.94c-1.36-1.38-2.73-2.75-4.1-4.13l-2.35-2.34c10.76-11.08,16.5-24.28,16.5-39.73s-5.72-28.65-16.54-39.82c.77-.73,1.56-1.47,2.33-2.23q2.06-2,4.09-4.07a.471.471,0,0,0,.07-.12h.1a3.61,3.61,0,0,0,.25.3c1.54,1.74,3.14,3.43,4.62,5.22a61.819,61.819,0,0,1,7.69,12.06,61.189,61.189,0,0,1,5.37,16c.49,2.64.74,5.32,1.06,8,.12.91.14,6.81.12,7-.13,1.82-.21,3.64-.41,5.45a61.653,61.653,0,0,1-3.5,14.67,64.09,64.09,0,0,1-4.65,9.93,61.652,61.652,0,0,1-6.63,9.47c-1.27,1.49-2.61,2.91-3.92,4.36Z" fill="#ebebeb"/>
        <path id="Path_385" data-name="Path 385" d="M237.2,69l6.47-6.52A45.93,45.93,0,0,1,257,89c2.09,15.43-2.59,28.67-13.22,39.9-2.21-2.21-4.35-4.37-6.52-6.55a37.15,37.15,0,0,0,11-26.67C248.26,85.31,244.39,76.44,237.2,69Z" fill="#ebebeb"/>
        <path id="Path_386" data-name="Path 386" d="M230.69,115.86l-6.48-6.49a19.28,19.28,0,0,0,0-27.33l6.48-6.48a28.32,28.32,0,0,1,0,40.3Z" fill="#ebebeb"/>
      </g>
      <rect id="Rectangle_149" data-name="Rectangle 149" width="26.48" height="11.19" transform="translate(441.28 348.61) rotate(180)" fill="#ebebeb"/>
      <rect id="Rectangle_150" data-name="Rectangle 150" width="26.48" height="11.19" transform="translate(456.05 362.72) rotate(180)" fill="#ebebeb"/>
      <rect id="Rectangle_151" data-name="Rectangle 151" width="26.48" height="11.19" transform="translate(426.5 362.72) rotate(180)" fill="#ebebeb"/>
      <rect id="Rectangle_152" data-name="Rectangle 152" width="26.48" height="11.19" transform="translate(85.2 362.72) rotate(180)" fill="#ebebeb"/>
      <rect id="Rectangle_153" data-name="Rectangle 153" width="26.48" height="11.19" transform="translate(85.2 60.76) rotate(180)" fill="#ebebeb"/>
      <rect id="Rectangle_154" data-name="Rectangle 154" width="26.48" height="11.19" transform="translate(70.43 74.87) rotate(180)" fill="#ebebeb"/>
      <rect id="Rectangle_155" data-name="Rectangle 155" width="26.48" height="11.19" transform="translate(456.05 60.77) rotate(180)" fill="#ebebeb"/>
      <rect id="Rectangle_156" data-name="Rectangle 156" width="26.48" height="11.19" transform="translate(356.6 182.73)" fill="#ebebeb"/>
      <rect id="Rectangle_157" data-name="Rectangle 157" width="26.48" height="11.19" transform="translate(341.83 168.62)" fill="#ebebeb"/>
    </g>
    <g id="freepik--Shadow--inject-37">
      <path id="Path_387" data-name="Path 387" d="M456,441.78c0,11.35-89.28,20.56-199.42,20.56S57.2,453.13,57.2,441.78s89.28-20.56,199.42-20.56S456,430.43,456,441.78Z" fill="#ebebeb"/>
    </g>
    <g id="freepik--Floor--inject-37">
      <path id="Path_388" data-name="Path 388" d="M39.45,418.55l52.64-.24,52.64-.09L250,418.05l105.27.17,52.64.09,52.64.24-52.64.25-52.64.08L250,419.05l-105.27-.17-52.64-.08Z" fill="#263238"/>
    </g>
    <g id="freepik--Device--inject-37">
      <rect id="Rectangle_158" data-name="Rectangle 158" width="144.94" height="223.43" transform="translate(66.07 60.54)" fill="#37474f"/>
      <path id="Path_389" data-name="Path 389" d="M200,60.54,179.28,283.97H97.79L77.07,60.54Z" fill="#455a64"/>
      <rect id="Rectangle_159" data-name="Rectangle 159" width="23.17" height="8.66" transform="translate(126.96 259.98)" fill="#a6a6a6"/>
      <rect id="Rectangle_160" data-name="Rectangle 160" width="23.17" height="8.66" transform="translate(88.34 259.98)" fill="#605d82"/>
      <rect id="Rectangle_161" data-name="Rectangle 161" width="23.17" height="8.66" transform="translate(165.57 259.98)" fill="#a6a6a6"/>
      <rect id="Rectangle_162" data-name="Rectangle 162" width="2.99" height="27.09" transform="translate(113.1 85.04)" fill="#37474f"/>
      <rect id="Rectangle_163" data-name="Rectangle 163" width="2.99" height="27.09" transform="translate(119.09 85.04)" fill="#37474f"/>
      <rect id="Rectangle_164" data-name="Rectangle 164" width="2.99" height="27.09" transform="translate(125.07 85.04)" fill="#37474f"/>
      <rect id="Rectangle_165" data-name="Rectangle 165" width="2.99" height="27.09" transform="translate(131.06 85.04)" fill="#37474f"/>
      <rect id="Rectangle_166" data-name="Rectangle 166" width="2.99" height="27.09" transform="translate(137.04 85.04)" fill="#37474f"/>
      <rect id="Rectangle_167" data-name="Rectangle 167" width="2.99" height="27.09" transform="translate(143.03 85.04)" fill="#37474f"/>
      <rect id="Rectangle_168" data-name="Rectangle 168" width="2.99" height="27.09" transform="translate(149.01 85.04)" fill="#37474f"/>
      <rect id="Rectangle_169" data-name="Rectangle 169" width="2.99" height="27.09" transform="translate(155 85.04)" fill="#37474f"/>
      <rect id="Rectangle_170" data-name="Rectangle 170" width="2.99" height="27.09" transform="translate(160.99 85.04)" fill="#37474f"/>
    </g>
    <g id="freepik--id-card--inject-37">
      <path id="Path_390" data-name="Path 390" d="M142.39,147.52V441.78h194V147.52ZM262.31,168.6H216.48v-8.22h45.83Z" fill="#ebebeb"/>
      <path id="Path_391" data-name="Path 391" d="M336.4,224.74V441.78H142.39V335.73Z" fill="#605d82"/>
      <path id="Path_392" data-name="Path 392" d="M336.4,224.74V441.78H142.39V335.73Z" opacity="0.1"/>
      <path id="Path_393" data-name="Path 393" d="M336.4,189.2v21.63L142.39,321.69v-.71Z" fill="#605d82"/>
      <rect id="Rectangle_171" data-name="Rectangle 171" width="135.16" height="161.67" transform="translate(171.82 188.51)" fill="#fff"/>
      <path id="Path_394" data-name="Path 394" d="M227,160.38h7.47s.41,4.28,3.8,4.92,8.56-2.06,13-10.7,1.93-16.47.92-16.91-9.33,1.4-14.87,9.83h-8.76A36.75,36.75,0,0,1,236.85,137c6-5.45,11.4-7.37,13.77-7.59l5.57-6.21,9.57,8,4.56.65-5.73,8.92a38,38,0,0,1-.81,7.63,46.44,46.44,0,0,1-6.9,13.32c-2.79,3.51-7.47,8.84-15.79,8.68S228.62,165.3,227,160.38Z" fill="#455a64"/>
      <path id="Path_395" data-name="Path 395" d="M256.19,123.2l9.57,7.99,4.56.65-9.66-8.16Z" fill="#263238"/>
      <path id="Path_396" data-name="Path 396" d="M252.19,137.69c-1-.45-9.33,1.4-14.87,9.83h-2.71C242.39,136.71,251.06,136.3,252.19,137.69Z" fill="#37474f"/>
      <path id="Path_397" data-name="Path 397" d="M238.27,165.3s-4.24.84-6-4.92h2.24s.39,4.07,3.56,4.86Z" fill="#37474f"/>
      <path id="Path_398" data-name="Path 398" d="M270.32,131.84l-5.74,8.92a38.353,38.353,0,0,1-.8,7.62c-.8,3.24-4.12,9.81-6.9,13.33s-7.47,8.83-15.79,8.68a18.35,18.35,0,0,1-3.7-.42h.15c9.6,1.39,15.48-5,20.16-13.32,4.37-7.76,3.1-17.4,3.1-17.4l5-8.08Z" fill="#37474f"/>
      <rect id="Rectangle_172" data-name="Rectangle 172" width="14.29" height="2.75" transform="translate(259.625 120.781) rotate(38.51)" fill="#455a64"/>
      <path id="Path_399" data-name="Path 399" d="M297.85,114.15c-2.34-1.77-24.38-15.91-30.11-19.45s-10.18-6.38-12.92-3.16-3.92,10.74-2.47,13.93S260.07,119,260.21,120a1.94,1.94,0,0,1-.56,1.6l10.19,8.35a3.17,3.17,0,0,1,1.68-1.28c1-.2,17.86.71,19.55.63a12.8,12.8,0,0,0,10.81-5.4C305.6,118.51,300.19,115.93,297.85,114.15ZM289.42,124c-5-.07-13.5-1.22-19.91-5.47-3.38-2.25-12.23-10.44-13-16.37a10,10,0,0,1,1.5-5.81c.93-1.66,6.25,2.18,10.57,5s23.21,15.46,24.67,16.47,3.8,2.32,3.67,3.12S294.38,124.05,289.42,124Z" fill="#455a64"/>
      <rect id="Rectangle_173" data-name="Rectangle 173" width="12.65" height="3.84" transform="translate(266.639 113.032) rotate(33.29)" fill="#455a64"/>
      <path id="Path_400" data-name="Path 400" d="M301.88,123.84a12.84,12.84,0,0,1-10.81,5.42c-1.69.07-18.58-.84-19.55-.63a3.08,3.08,0,0,0-1.68,1.27l-3.57-2.9c.2,0,1.46-1.58,2.65-1.66s19.36,2.7,23.81,2.7,8.12-4,9.2-6.76c1.22-3.13-3.8-6.81-4.06-7.08C300.21,115.94,305.6,118.52,301.88,123.84Z" fill="#37474f"/>
      <path id="Path_401" data-name="Path 401" d="M200.14,368.74H196.5l-.74,1.95a.84.84,0,0,1-.78.53.871.871,0,0,1-.28-.05.85.85,0,0,1-.5-1.08l3.32-8.83a.86.86,0,0,1,1.59,0l3.31,8.83a.85.85,0,0,1-.49,1.08.841.841,0,0,1-.29.05.81.81,0,0,1-.76-.53Zm-.61-1.65-1.22-3.22-1.21,3.22Z" fill="#ebebeb"/>
      <path id="Path_402" data-name="Path 402" d="M206.13,370.39a.84.84,0,0,1-.81.83.83.83,0,0,1-.83-.83v-8.73a.85.85,0,0,1,.33-.69.83.83,0,0,1,1.14.18l4.85,6.71v-6.18a.81.81,0,0,1,.81-.81.82.82,0,0,1,.82.81v8.71a.83.83,0,0,1-.82.83.82.82,0,0,1-.62-.3.28.28,0,0,1-.07-.09l-4.8-6.66Z" fill="#ebebeb"/>
      <path id="Path_403" data-name="Path 403" d="M217.2,370.39a.84.84,0,0,1-.81.83.83.83,0,0,1-.83-.83v-8.73a.85.85,0,0,1,.33-.69.83.83,0,0,1,1.14.18l4.85,6.71v-6.18a.81.81,0,0,1,.81-.81.82.82,0,0,1,.82.81v8.71a.83.83,0,0,1-.82.83.82.82,0,0,1-.62-.3.28.28,0,0,1-.07-.09l-4.8-6.66Z" fill="#ebebeb"/>
      <path id="Path_404" data-name="Path 404" d="M226.14,370.39v-8.85a.81.81,0,0,1,.82-.82h4.91a.83.83,0,0,1,.82.82.84.84,0,0,1-.82.84H227.8v2.75h3.5a.84.84,0,0,1,.82.82.83.83,0,0,1-.82.84h-3.5v2.76h4.07a.84.84,0,0,1,0,1.67H227a.83.83,0,0,1-.86-.83Z" fill="#ebebeb"/>
      <path id="Path_405" data-name="Path 405" d="M239.2,368.61a.79.79,0,0,1,1.1-.11,4.93,4.93,0,0,0,2.86,1.16,3.25,3.25,0,0,0,1.88-.56,1.34,1.34,0,0,0,.64-1.08.86.86,0,0,0-.13-.48,1.47,1.47,0,0,0-.45-.45,6,6,0,0,0-2.06-.7h0a8.389,8.389,0,0,1-1.93-.59,3.21,3.21,0,0,1-1.4-1.17,2.34,2.34,0,0,1-.34-1.23,2.77,2.77,0,0,1,1.2-2.19,4.42,4.42,0,0,1,2.59-.79,5.82,5.82,0,0,1,3.27,1.2.76.76,0,0,1,.21,1.06.75.75,0,0,1-1.06.23,4.37,4.37,0,0,0-2.42-1,2.89,2.89,0,0,0-1.68.51,1.21,1.21,0,0,0-.57.94.69.69,0,0,0,.11.42,1.351,1.351,0,0,0,.4.39,5.2,5.2,0,0,0,1.88.66h0a9.149,9.149,0,0,1,2.07.63,3.54,3.54,0,0,1,1.5,1.25,2.47,2.47,0,0,1,.36,1.27,2.91,2.91,0,0,1-1.29,2.33,4.7,4.7,0,0,1-2.78.85,6.42,6.42,0,0,1-3.84-1.5.8.8,0,0,1-.12-1.05Z" fill="#ebebeb"/>
      <path id="Path_406" data-name="Path 406" d="M258.57,361.54v8.85a.85.85,0,0,1-.84.83.83.83,0,0,1-.83-.83v-6.31l-2.16,3a.81.81,0,0,1-.67.34h0a.85.85,0,0,1-.69-.34l-2.15-3v6.31a.83.83,0,0,1-1.66,0v-8.85a.82.82,0,0,1,.82-.82h0a.82.82,0,0,1,.66.34l3,4.14,3-4.14a.81.81,0,0,1,.67-.34h0a.85.85,0,0,1,.85.82Z" fill="#ebebeb"/>
      <path id="Path_407" data-name="Path 407" d="M262.3,361.54a.81.81,0,0,1,.83-.82.83.83,0,0,1,.84.82v8.85a.84.84,0,0,1-.84.83.82.82,0,0,1-.83-.83Z" fill="#ebebeb"/>
      <path id="Path_408" data-name="Path 408" d="M273.19,362.38h-2.38v8a.83.83,0,1,1-1.65,0v-8h-2.37a.84.84,0,0,1-.83-.84.81.81,0,0,1,.83-.82h6.4a.83.83,0,0,1,.83.82A.85.85,0,0,1,273.19,362.38Z" fill="#ebebeb"/>
      <path id="Path_409" data-name="Path 409" d="M276.49,370.39v-8.85a.81.81,0,0,1,.83-.82.83.83,0,0,1,.84.82v3.6H282v-3.6a.81.81,0,0,1,.83-.82.83.83,0,0,1,.84.82v8.85a.83.83,0,0,1-.84.83.82.82,0,0,1-.83-.83v-3.6h-3.88v3.6a.83.83,0,0,1-.84.83.82.82,0,0,1-.79-.83Z" fill="#ebebeb"/>
      <path id="Path_410" data-name="Path 410" d="M193.79,393.12a.49.49,0,0,1,.49-.5.51.51,0,0,1,.51.5v5.31a.5.5,0,0,1-.51.49.48.48,0,0,1-.49-.49Z" fill="#ebebeb"/>
      <path id="Path_411" data-name="Path 411" d="M196.47,398.43v-5.31a.49.49,0,0,1,.49-.5H198a3.15,3.15,0,0,1,0,6.3h-1a.48.48,0,0,1-.53-.49Zm1-.51H198a2.15,2.15,0,0,0,0-4.3h-.56Z" fill="#ebebeb"/>
      <path id="Path_412" data-name="Path 412" d="M206.63,398.43a.5.5,0,0,1-.49.49.48.48,0,0,1-.49-.49V393.2h0a.46.46,0,0,1,.2-.41.49.49,0,0,1,.68.1l2.91,4V393.2a.49.49,0,0,1,.48-.49.51.51,0,0,1,.5.49v5.23a.5.5,0,0,1-.5.49.49.49,0,0,1-.37-.18v-.05l-2.88-4Z" fill="#ebebeb"/>
      <path id="Path_413" data-name="Path 413" d="M212.89,398.27a2.3,2.3,0,0,1-.62-1.59,2.34,2.34,0,0,1,.62-1.57,2.1,2.1,0,0,1,1.55-.69,1.94,1.94,0,0,1,1.5.69,2.22,2.22,0,0,1,.64,1.57,2.19,2.19,0,0,1-.64,1.59,2,2,0,0,1-1.5.68A2.12,2.12,0,0,1,212.89,398.27Zm.36-1.59a1.47,1.47,0,0,0,.33,1,1.23,1.23,0,0,0,.86.33,1.21,1.21,0,0,0,.83-.33,1.43,1.43,0,0,0,.35-1,1.35,1.35,0,0,0-.35-.93,1.27,1.27,0,0,0-.83-.35,1.29,1.29,0,0,0-.86.35,1.39,1.39,0,0,0-.33.93Z" fill="#ebebeb"/>
      <path id="Path_414" data-name="Path 414" d="M218.49,397.65a.67.67,0,1,1-.67.67.67.67,0,0,1,.67-.67Z" fill="#ebebeb"/>
      <path id="Path_415" data-name="Path 415" d="M224.31,393.12v5.31a.5.5,0,0,1-1,0V394l-.36.21a.48.48,0,0,1-.67-.18.49.49,0,0,1,.16-.68l1.11-.66h.39v.05h0a.13.13,0,0,0,0,.06Z" fill="#ebebeb"/>
      <path id="Path_416" data-name="Path 416" d="M229.53,398.43a.49.49,0,0,1-.5.49h-3.2a.47.47,0,0,1-.37-.16.5.5,0,0,1,0-.7l2.67-2.41a1.17,1.17,0,0,0-.79-2,1.19,1.19,0,0,0-.78.3l-.28.25a.48.48,0,0,1-.7,0,.49.49,0,0,1,0-.7l.28-.25a2.09,2.09,0,0,1,1.44-.56,2.22,2.22,0,0,1,1.61.71,2.15,2.15,0,0,1-.16,3.05l-1.7,1.54H229A.5.5,0,0,1,229.53,398.43Z" fill="#ebebeb"/>
      <path id="Path_417" data-name="Path 417" d="M235.31,397.25a.49.49,0,0,1-.5.49h-.09v.69a.49.49,0,0,1-.5.49.48.48,0,0,1-.49-.49v-.69h-2.84a.42.42,0,0,1-.3-.1.48.48,0,0,1-.08-.7l3.33-4.14h.45v.11h0a.09.09,0,0,1,0,.05h0v3.66h.09a.562.562,0,1,1,.93.63Zm-1.58-2.72-1.79,2.22h1.79Z" fill="#ebebeb"/>
      <path id="Path_418" data-name="Path 418" d="M239.79,395.11a2.17,2.17,0,0,1,.66,1.58,2.23,2.23,0,0,1-.66,1.58,2.18,2.18,0,0,1-1.57.65h0a2.19,2.19,0,0,1-1.57-.65.51.51,0,1,1,.72-.72,1.22,1.22,0,0,0,.87.36,1.19,1.19,0,0,0,.85-.36,1.21,1.21,0,0,0,.36-.86,1.212,1.212,0,0,0-1.21-1.21,1.18,1.18,0,0,0-.87.35.51.51,0,0,1-.72,0l-.09-.12h0a.349.349,0,0,0,0-.06h0a.43.43,0,0,1,0-.16l.27-2.33a.56.56,0,0,1,.23-.36h0a.44.44,0,0,1,.23-.06h2.66a.51.51,0,0,1,0,1h-2.22l-.1.89a2.408,2.408,0,0,1,.6-.08A2.19,2.19,0,0,1,239.79,395.11Z" fill="#ebebeb"/>
      <path id="Path_419" data-name="Path 419" d="M245.24,395.11a2.21,2.21,0,0,1,.66,1.58,2.27,2.27,0,0,1-.66,1.58,2.2,2.2,0,0,1-1.58.65h0a2.18,2.18,0,0,1-1.57-.65.49.49,0,0,1,0-.72.51.51,0,0,1,.72,0,1.18,1.18,0,0,0,.86.36,1.2,1.2,0,0,0,.86-.36,1.26,1.26,0,0,0,.36-.86,1.18,1.18,0,0,0-.36-.86,1.13,1.13,0,0,0-.86-.35,1.16,1.16,0,0,0-.86.35.51.51,0,0,1-.72,0l-.1-.12h0a.35.35,0,0,0,0-.06h0a.43.43,0,0,1,0-.16l.27-2.33a.51.51,0,0,1,.22-.36h0a.5.5,0,0,1,.24-.06h2.65a.51.51,0,1,1,0,1h-2.21l-.11.89a2.537,2.537,0,0,1,.6-.08,2.21,2.21,0,0,1,1.59.56Z" fill="#ebebeb"/>
      <path id="Path_420" data-name="Path 420" d="M251.58,396.78a2.16,2.16,0,1,1-3.34-1.79,1.45,1.45,0,0,1-.3-.89,1.5,1.5,0,0,1,3,0,1.45,1.45,0,0,1-.3.89,2.15,2.15,0,0,1,.94,1.79Zm-1,0a.481.481,0,1,0,.01,0Zm-1.67-2.68a.505.505,0,1,1,.01,0Z" fill="#ebebeb"/>
      <path id="Path_421" data-name="Path 421" d="M257.1,398.43a.48.48,0,0,1-.49.49H253.4a.5.5,0,0,1-.37-.86l2.66-2.41a1.18,1.18,0,0,0,.08-1.65,1.13,1.13,0,0,0-.86-.38,1.16,1.16,0,0,0-.78.3l-.28.25a.48.48,0,0,1-.7,0,.49.49,0,0,1,0-.7l.28-.25a2.13,2.13,0,0,1,1.45-.56,2.16,2.16,0,0,1,1.45,3.76l-1.7,1.54h1.92a.5.5,0,0,1,.55.47Z" fill="#ebebeb"/>
      <path id="Path_422" data-name="Path 422" d="M262.24,393.31,260,398.63a.46.46,0,0,1-.46.29.44.44,0,0,1-.19,0,.52.52,0,0,1-.27-.65l1.95-4.62H258.7a.5.5,0,0,1-.49-.5.49.49,0,0,1,.49-.5h3.18a1.46,1.46,0,0,1,.19.07h0v.05h0a.67.67,0,0,1,0,.2Z" fill="#ebebeb"/>
      <path id="Path_423" data-name="Path 423" d="M266.72,395.1a2.2,2.2,0,0,1,.66,1.57,2.23,2.23,0,0,1-3.82,1.59.51.51,0,1,1,.72-.72,1.231,1.231,0,0,0,1.72,0,1.19,1.19,0,0,0,.36-.87,1.14,1.14,0,0,0-.36-.85,1.21,1.21,0,0,0-.85-.36.46.46,0,0,1-.37-.16h0a.51.51,0,0,1,0-.72l.92-.94h-1.46a.51.51,0,0,1,0-1.02h2.66a.51.51,0,0,1,.51.51.609.609,0,0,1-.06.24l-.09.13-1.14,1.17a1.84,1.84,0,0,1,.6.43Z" fill="#ebebeb"/>
      <path id="Path_424" data-name="Path 424" d="M268.76,394.8a2.19,2.19,0,0,1,4.36-.22h0v.52a5.13,5.13,0,0,1-.32,1.84,3.08,3.08,0,0,1-1.16,1.54,2.63,2.63,0,0,1-1.35.43.51.51,0,0,1-.52-.48.52.52,0,0,1,.49-.52,1.58,1.58,0,0,0,.84-.26,1.75,1.75,0,0,0,.57-.63l.12-.23a2.12,2.12,0,0,1-.87.18,2.19,2.19,0,0,1-2.16-2.17Zm1,0a1.19,1.19,0,1,0,1.185-1.081A1.19,1.19,0,0,0,269.76,394.8Z" fill="#ebebeb"/>
      <path id="Path_425" data-name="Path 425" d="M274.53,395.77a3.84,3.84,0,0,1,.62-2.15,1.894,1.894,0,0,1,3.34,0,4.15,4.15,0,0,1,0,4.3,2.07,2.07,0,0,1-1.67,1,2,2,0,0,1-1.67-1,3.84,3.84,0,0,1-.62-2.15Zm3.56,0a3,3,0,0,0-.43-1.6,1,1,0,0,0-.84-.55,1.1,1.1,0,0,0-.86.55,3.19,3.19,0,0,0,0,3.2,1.12,1.12,0,0,0,.86.55,1.06,1.06,0,0,0,.84-.55,3,3,0,0,0,.43-1.6Z" fill="#ebebeb"/>
      <path id="Path_426" data-name="Path 426" d="M285.14,396.78A2.16,2.16,0,1,1,281.8,395a1.45,1.45,0,0,1-.3-.89,1.5,1.5,0,0,1,3,0,1.45,1.45,0,0,1-.3.89A2.15,2.15,0,0,1,285.14,396.78Zm-1,0a.485.485,0,1,0,.02,0Zm-1.68-2.68a.5.5,0,1,1,.02,0Z" fill="#ebebeb"/>
      <rect id="Rectangle_174" data-name="Rectangle 174" width="3.24" height="20.28" transform="translate(194.04 405.47)" fill="#263238"/>
      <rect id="Rectangle_175" data-name="Rectangle 175" width="3.24" height="20.28" transform="translate(204.3 405.47)" fill="#263238"/>
      <rect id="Rectangle_176" data-name="Rectangle 176" width="3.24" height="20.28" transform="translate(212.93 405.47)" fill="#263238"/>
      <rect id="Rectangle_177" data-name="Rectangle 177" width="3.24" height="20.28" transform="translate(217.08 405.47)" fill="#263238"/>
      <rect id="Rectangle_178" data-name="Rectangle 178" width="0.81" height="20.28" transform="translate(200.98 405.47)" fill="#263238"/>
      <rect id="Rectangle_179" data-name="Rectangle 179" width="0.81" height="20.28" transform="translate(283.95 405.47)" fill="#263238"/>
      <rect id="Rectangle_180" data-name="Rectangle 180" width="0.81" height="20.28" transform="translate(211.12 405.47)" fill="#263238"/>
      <rect id="Rectangle_181" data-name="Rectangle 181" width="0.81" height="20.28" transform="translate(233.89 405.47)" fill="#263238"/>
      <rect id="Rectangle_182" data-name="Rectangle 182" width="0.81" height="20.28" transform="translate(202.56 405.47)" fill="#263238"/>
      <rect id="Rectangle_183" data-name="Rectangle 183" width="1.62" height="20.28" transform="translate(198.39 405.47)" fill="#263238"/>
      <rect id="Rectangle_184" data-name="Rectangle 184" width="3.24" height="20.28" transform="translate(238.38 405.47)" fill="#263238"/>
      <rect id="Rectangle_185" data-name="Rectangle 185" width="0.81" height="20.28" transform="translate(245.32 405.47)" fill="#263238"/>
      <rect id="Rectangle_186" data-name="Rectangle 186" width="0.81" height="20.28" transform="translate(246.9 405.47)" fill="#263238"/>
      <rect id="Rectangle_187" data-name="Rectangle 187" width="1.62" height="20.28" transform="translate(242.73 405.47)" fill="#263238"/>
      <rect id="Rectangle_188" data-name="Rectangle 188" width="1.62" height="20.28" transform="translate(248.64 405.47)" fill="#263238"/>
      <rect id="Rectangle_189" data-name="Rectangle 189" width="1.62" height="20.28" transform="translate(251.25 405.47)" fill="#263238"/>
      <rect id="Rectangle_190" data-name="Rectangle 190" width="3.24" height="20.28" transform="translate(229.63 405.47)" fill="#263238"/>
      <rect id="Rectangle_191" data-name="Rectangle 191" width="3.24" height="20.28" transform="translate(253.91 405.47)" fill="#263238"/>
      <rect id="Rectangle_192" data-name="Rectangle 192" width="0.81" height="20.28" transform="translate(226.31 405.47)" fill="#263238"/>
      <rect id="Rectangle_193" data-name="Rectangle 193" width="0.81" height="20.28" transform="translate(227.89 405.47)" fill="#263238"/>
      <rect id="Rectangle_194" data-name="Rectangle 194" width="1.62" height="20.28" transform="translate(223.72 405.47)" fill="#263238"/>
      <rect id="Rectangle_195" data-name="Rectangle 195" width="1.62" height="20.28" transform="translate(208.49 405.47)" fill="#263238"/>
      <rect id="Rectangle_196" data-name="Rectangle 196" width="1.62" height="20.28" transform="translate(221.19 405.47)" fill="#263238"/>
      <rect id="Rectangle_197" data-name="Rectangle 197" width="1.62" height="20.28" transform="translate(235.62 405.47)" fill="#263238"/>
      <rect id="Rectangle_198" data-name="Rectangle 198" width="0.81" height="20.28" transform="translate(258.16 405.47)" fill="#263238"/>
      <rect id="Rectangle_199" data-name="Rectangle 199" width="3.24" height="20.28" transform="translate(262.65 405.47)" fill="#263238"/>
      <rect id="Rectangle_200" data-name="Rectangle 200" width="3.24" height="20.28" transform="translate(272.92 405.47)" fill="#263238"/>
      <rect id="Rectangle_201" data-name="Rectangle 201" width="3.24" height="20.28" transform="translate(277.13 405.47)" fill="#263238"/>
      <rect id="Rectangle_202" data-name="Rectangle 202" width="0.81" height="20.28" transform="translate(269.59 405.47)" fill="#263238"/>
      <rect id="Rectangle_203" data-name="Rectangle 203" width="0.81" height="20.28" transform="translate(271.17 405.47)" fill="#263238"/>
      <rect id="Rectangle_204" data-name="Rectangle 204" width="1.62" height="20.28" transform="translate(267.01 405.47)" fill="#263238"/>
      <rect id="Rectangle_205" data-name="Rectangle 205" width="1.62" height="20.28" transform="translate(259.9 405.47)" fill="#263238"/>
      <rect id="Rectangle_206" data-name="Rectangle 206" width="1.62" height="20.28" transform="translate(281.4 405.47)" fill="#263238"/>
      <rect id="Rectangle_207" data-name="Rectangle 207" width="41.54" height="2.29" transform="translate(218.16 376.96)" fill="#263238"/>
      <path id="Path_427" data-name="Path 427" d="M446.07,427.48a1,1,0,0,1-.38.82c-7,6.19-21.09,8.33-35.67,8.33H390.46c14.58,0,28.63-2.14,35.69-8.33a1,1,0,0,0,.36-.82c-.06-2.55-6.81-7.82-14.62-13.93-14.31-11.17-33.89-26.48-33.89-41,0-14,8.78-36.75,18.92-63.11,14.68-38.15,31.34-81.39,28.13-114.16-2.87-29.34-41-94.93-76.05-121.81-7.67-5.88-14.08-8.84-19.14-8.84h19.55c5.06,0,11.48,3,19.15,8.84,35.05,26.88,73.17,92.47,76,121.81,3.21,32.77-13.44,76-28.13,114.16-10.15,26.36-18.91,49.12-18.91,63.11,0,14.55,19.58,29.86,33.88,41C439.25,419.66,446,424.93,446.07,427.48Z" fill="#605d82"/>
      <g id="Group_45" data-name="Group 45" opacity="0.2">
        <path id="Path_428" data-name="Path 428" d="M446.07,427.48a1,1,0,0,1-.38.82c-7,6.19-21.09,8.33-35.67,8.33H390.46c14.58,0,28.63-2.14,35.69-8.33a1,1,0,0,0,.36-.82c-.06-2.55-6.81-7.82-14.62-13.93-14.31-11.17-33.89-26.48-33.89-41,0-14,8.78-36.75,18.92-63.11,14.68-38.15,31.34-81.39,28.13-114.16-2.87-29.34-41-94.93-76.05-121.81-7.67-5.88-14.08-8.84-19.14-8.84h19.55c5.06,0,11.48,3,19.15,8.84,35.05,26.88,73.17,92.47,76,121.81,3.21,32.77-13.44,76-28.13,114.16-10.15,26.36-18.91,49.12-18.91,63.11,0,14.55,19.58,29.86,33.88,41C439.25,419.66,446,424.93,446.07,427.48Z"/>
      </g>
      <path id="Path_429" data-name="Path 429" d="M409.9,437.62H390.35c-18.47,0-37.7-3.38-44.89-6.34-14.3-5.89-2.2-100.94,7.53-177.31,5.33-41.9,9.93-78.09,8.14-85.23-3.36-13.3-15.57-33-32.66-52.77-14.28-16.48-28.17-28.41-33-28.41H315c4.85,0,18.74,11.93,33,28.41,17.09,19.74,29.3,39.47,32.66,52.77,1.8,7.14-2.8,43.33-8.14,85.23-9.72,76.37-21.83,171.42-7.53,177.31C372.21,434.24,391.43,437.62,409.9,437.62Z" fill="#605d82"/>
      <g id="Group_46" data-name="Group 46" opacity="0.1">
        <path id="Path_430" data-name="Path 430" d="M409.9,437.62H390.35c-18.47,0-37.7-3.38-44.89-6.34-14.3-5.89-2.2-100.94,7.53-177.31,5.33-41.9,9.93-78.09,8.14-85.23-3.36-13.3-15.57-33-32.66-52.77-14.28-16.48-28.17-28.41-33-28.41H315c4.85,0,18.74,11.93,33,28.41,17.09,19.74,29.3,39.47,32.66,52.77,1.8,7.14-2.8,43.33-8.14,85.23-9.72,76.37-21.83,171.42-7.53,177.31C372.21,434.24,391.43,437.62,409.9,437.62Z"/>
      </g>
      <path id="Path_431" data-name="Path 431" d="M307.39,89.52H287.84a26.131,26.131,0,0,1,6.91-2.93H314.3a26.13,26.13,0,0,0-6.91,2.93Z" fill="#605d82"/>
      <g id="Group_47" data-name="Group 47" opacity="0.2">
        <path id="Path_432" data-name="Path 432" d="M307.39,89.52H287.84a26.131,26.131,0,0,1,6.91-2.93H314.3a26.13,26.13,0,0,0-6.91,2.93Z"/>
      </g>
      <path id="Path_433" data-name="Path 433" d="M432,412.7c8.68,6.79,15,11.68,15,14.75a2.09,2.09,0,0,1-.73,1.66c-7.21,6.32-21.56,8.51-36.42,8.51-18.47,0-37.69-3.38-44.89-6.34-14.3-5.89-2.19-100.94,7.53-177.31,5.34-41.9,9.94-78.09,8.14-85.23-3.36-13.3-15.57-33-32.66-52.77-14.27-16.48-28.16-28.41-33-28.41-5.79,1.22-13.48,6.82-18.82,11.14-5.63,4.76-13.51,12-13.64,12.07l-1.29-.2c.27-.25,6.35-5.83,8.33-7.56.61-.57,2.77-2.51,5.69-4.9,13.36-11.34,37.94-31,51.24-34.23a12.22,12.22,0,0,1,2.88-.33c5.28,0,11.89,3,19.72,9,29.79,22.84,73,87.62,76.45,122.56,3.24,33-13.46,76.4-28.19,114.67-10.11,26.26-18.84,48.93-18.84,62.71C398.54,386.54,417.89,401.66,432,412.7Zm13.68,15.59a1,1,0,0,0,.37-.81c-.07-2.55-6.82-7.82-14.63-13.93-14.3-11.17-33.88-26.48-33.88-41,0-14,8.76-36.75,18.91-63.11,14.69-38.15,31.34-81.38,28.13-114.16-2.87-29.34-41-94.93-76-121.82-7.67-5.87-14.09-8.83-19.14-8.83a11.67,11.67,0,0,0-2.69.31c-9.76,2.38-26.16,14.14-39.34,24.61a26.13,26.13,0,0,1,6.91-2.93c12.12-.07,59.92,52.53,67.32,81.88,1.85,7.35-2.55,41.9-8.11,85.64-9.17,72-21.72,170.6-8.14,176.2,7.15,2.94,26.32,6.32,44.65,6.32,14.58,0,28.63-2.14,35.68-8.34" fill="#605d82"/>
      <path id="Path_434" data-name="Path 434" d="M349.4,63.55a11.71,11.71,0,0,0-2.88.34c-13.3,3.24-37.88,22.88-51.24,34.21-2.92,2.4-5.08,4.34-5.69,4.9-2,1.73-8.07,7.32-8.34,7.57L270,103c.6-.56,2.77-2.5,5.68-4.9,13.37-11.33,37.94-31,51.24-34.21a11.77,11.77,0,0,1,2.88-.34Z" fill="#605d82"/>
      <g id="Group_48" data-name="Group 48" opacity="0.1">
        <path id="Path_435" data-name="Path 435" d="M349.4,63.55a11.71,11.71,0,0,0-2.88.34c-13.3,3.24-37.88,22.88-51.24,34.21-2.92,2.4-5.08,4.34-5.69,4.9-2,1.73-8.07,7.32-8.34,7.57L270,103c.6-.56,2.77-2.5,5.68-4.9,13.37-11.33,37.94-31,51.24-34.21a11.77,11.77,0,0,1,2.88-.34Z"/>
      </g>
    </g>
    <g id="freepik--Character--inject-37">
      <path id="Path_436" data-name="Path 436" d="M221.5,203.68c-10.3,13.19-3.69,28.06-7.19,37.56-2.14,5.8-11.39,13.35-12.25,19.72-1.41,10.46,7.59,12.3,6.8,18-1.1,8.06-11.3,9.51-10.63,22.19s16.87,23.04,49.77,20.1,48.18-18.29,47.22-29-12.36-12-14.66-19.66c-1.47-4.89,4.43-9.7,2.92-19s-11.07-10.42-13.92-18S267,208.4,253.58,201,226.58,197.17,221.5,203.68Z" fill="#263238"/>
      <path id="Path_437" data-name="Path 437" d="M223,203.67a27,27,0,0,0-6.34,11.21,59.23,59.23,0,0,0-2,13.57,35.279,35.279,0,0,1-1,8.07,19.82,19.82,0,0,1-3.24,6.21c-2.85,3.84-6.52,7.07-8.93,11.24-2.28,4-3.68,8.89-1.58,13.22,1.15,2.35,3.19,4.05,4.68,6.16s2.34,4.65.83,6.85c-1.3,1.89-3.49,3.07-5.05,4.72a20.41,20.41,0,0,0-3.78,5.5,16,16,0,0,0-.46,13c3.91,9.63,14.44,13.42,23.83,15.26,1.31.26,2.63.5,3.94.73.2,0,.31-.26.1-.31-9.49-2.14-20.5-4.67-25.81-13.72a14.94,14.94,0,0,1-1.1-13.21,19,19,0,0,1,3.62-5.77c1.49-1.64,3.35-2.84,4.88-4.43a6,6,0,0,0,1.67-5.83c-.59-2.33-2.15-4.15-3.69-5.92s-3.08-3.79-3.41-6.32a13.27,13.27,0,0,1,1.27-6.95c1.94-4.38,5.44-7.7,8.45-11.33s5.24-7.61,5.64-12.41c.2-2.43.14-4.87.25-7.31a63.473,63.473,0,0,1,.63-6.74,31.05,31.05,0,0,1,4.54-12.58,17.58,17.58,0,0,1,2.22-2.72C223.23,203.73,223.09,203.57,223,203.67Z" fill="#263238"/>
      <path id="Path_438" data-name="Path 438" d="M295.08,284.33a12.15,12.15,0,0,0-3.17-4.24c-1.4-1.19-3-2.11-4.5-3.17a9.4,9.4,0,0,1-3.51-3.81c-.82-2-.36-4.12.25-6.08a44.487,44.487,0,0,0,1.75-6.19,20.54,20.54,0,0,0-5.64-17.55c-1.46-1.58-3-3-4.51-4.6a26.308,26.308,0,0,1-4.11-5.67c-2.43-4.56-3.77-9.6-5.94-14.27a78.6,78.6,0,0,0-8.17-13.54c-.08-.1-.23,0-.15.14a69.258,69.258,0,0,1,7.23,12.26c1.89,4.1,3.16,8.41,4.8,12.6a33.324,33.324,0,0,0,2.9,5.94,33.839,33.839,0,0,0,3.88,4.82c2.89,3.1,5.84,6.15,7.29,10.23a20.1,20.1,0,0,1,.35,12.46c-1,3.54-2.7,7.54-.47,11,1.89,2.91,5.3,4.2,7.84,6.42a13,13,0,0,1,4.23,9.73c.08,9.36-8,15.65-16.4,17.8a.21.21,0,0,0,.09.41c7.33-1.57,14.67-6.41,16.73-14a15.86,15.86,0,0,0-.77-10.69Z" fill="#263238"/>
      <path id="Path_439" data-name="Path 439" d="M285.26,350.18h-86.4l1.83-10.1.38-2.06,1.17-6.4.09-.51,2-10.72.12-.67,1.09-6v-.1l.17-.87.16-.94s-.36-.66-.87-1.79c-.1-.23-.21-.47-.31-.72-.42-1-.9-2.26-1.34-3.69-.26-.82-.5-1.7-.7-2.63a18.89,18.89,0,0,1,1.92-15c.7-1.3,1.52-2.67,2.44-4.11,6.93-10.75,19.26-24.21,22.25-27,.31-.28.62-.57.94-.83h0a18.828,18.828,0,0,1,2.11-1.56c4.63-3,10.31-4.15,15.77-1.86a17.541,17.541,0,0,1,3.89,2.28c.28.21.55.43.84.67s.73.64,1.1,1c.51.52,1,1.06,1.54,1.65a1.76,1.76,0,0,1,.24.3c.42.48.84,1,1.25,1.54,8.93,11.75,16,34,20.81,53.48C282.63,333.33,285.26,350.18,285.26,350.18Z" fill="#605d82"/>
      <path id="Path_440" data-name="Path 440" d="M230.18,256.08s-3.4,12-.05,12.81,11.4-5.18,21.83-14C252,254.93,242,244.13,230.18,256.08Z" fill="#eb9481"/>
      <path id="Path_441" data-name="Path 441" d="M247.9,254.13c-.43,1.38-7.82,10.07-14.25,9.31-2.09-.25-1.23-11.74-1.23-11.74l-.13-.86-1.82-12.08,14.6-8,2.1-1s.28,3.34.59,7.5v.59a2.573,2.573,0,0,0,.06.67c.06.62.11,1.26.15,1.89s.06,1,.08,1.46,0,1,.07,1.51A78.639,78.639,0,0,1,247.9,254.13Z" fill="#eb9481"/>
      <path id="Path_442" data-name="Path 442" d="M247.76,237.24a24.54,24.54,0,0,1-15.47,13.6l-1.82-12.08,14.6-8,2.1-1S247.45,233.08,247.76,237.24Z" fill="#263238"/>
      <path id="Path_443" data-name="Path 443" d="M215.62,218.61c-3.45,21.16,8.84,25.61,13.4,26.35,4.15.67,18.34,2.42,23.95-18.27s-3.14-29-12.53-31S219.06,197.45,215.62,218.61Z" fill="#eb9481"/>
      <path id="Path_444" data-name="Path 444" d="M221.56,215.36a14.37,14.37,0,0,0,1.47-.17,2.48,2.48,0,0,0,1.47-.47.75.75,0,0,0,.08-.92,1.88,1.88,0,0,0-1.82-.61,2.72,2.72,0,0,0-1.82.82.81.81,0,0,0,.62,1.35Z" fill="#263238"/>
      <path id="Path_445" data-name="Path 445" d="M235.81,217.38c-.5-.11-.94-.29-1.42-.44a2.41,2.41,0,0,1-1.36-.72.76.76,0,0,1,.09-.93A1.9,1.9,0,0,1,235,215a2.81,2.81,0,0,1,1.64,1.14.81.81,0,0,1-.83,1.24Z" fill="#263238"/>
      <path id="Path_446" data-name="Path 446" d="M232.47,222.5c0-.05.1.08.09.14-.21,1.45-.21,3.14,1.05,3.77v.08C232,226.08,232,223.84,232.47,222.5Z" fill="#263238"/>
      <path id="Path_447" data-name="Path 447" d="M233.94,221.14c2.35.09,2,4.79-.19,4.7S232,221.06,233.94,221.14Z" fill="#263238"/>
      <path id="Path_448" data-name="Path 448" d="M234.84,221.46c.39.29.76.79,1.25.88s1-.36,1.45-.81c0,0,.08,0,.07.06-.05.91-.47,1.8-1.44,1.86s-1.47-.78-1.62-1.71C234.52,221.57,234.68,221.34,234.84,221.46Z" fill="#263238"/>
      <path id="Path_449" data-name="Path 449" d="M223.87,221.27c0-.05-.12.06-.12.12-.06,1.46-.36,3.13-1.71,3.52v.08C223.67,224.87,224.05,222.66,223.87,221.27Z" fill="#263238"/>
      <path id="Path_450" data-name="Path 450" d="M222.67,219.66c-2.33-.33-2.83,4.35-.67,4.66S224.63,220,222.67,219.66Z" fill="#263238"/>
      <path id="Path_451" data-name="Path 451" d="M221.66,219.87c-.4.2-.81.62-1.26.6s-.84-.57-1.11-1.09c0-.06-.07,0-.08,0-.12.89.08,1.86.92,2.12s1.42-.46,1.73-1.33C221.92,220.05,221.82,219.78,221.66,219.87Z" fill="#263238"/>
      <path id="Path_452" data-name="Path 452" d="M230.6,233.6c-.32.37-.63.86-1.16,1a4,4,0,0,1-1.59-.24.05.05,0,0,0-.06.08,2,2,0,0,0,1.91.64,1.55,1.55,0,0,0,1-1.38C230.76,233.57,230.64,233.54,230.6,233.6Z" fill="#263238"/>
      <path id="Path_453" data-name="Path 453" d="M224.87,228s-.49,2.15-.58,3.17c0,.1.24.16.58.21h0a4.89,4.89,0,0,0,4.89-1.4.11.11,0,0,0-.14-.16,7.33,7.33,0,0,1-4.56.88c0-.29,1-3.64.81-3.67a9.09,9.09,0,0,0-2.38.32c.9-4.5,2.5-8.81,3.32-13.31a.14.14,0,0,0-.26-.09c-2,4.41-3.14,9.57-4.18,14.19C222.27,228.67,224.45,228.09,224.87,228Z" fill="#263238"/>
      <path id="Path_454" data-name="Path 454" d="M225.07,231a6,6,0,0,0,2.08,2.18,2.71,2.71,0,0,0,1.6.33c1.21-.13,1.39-1.19,1.31-2.14a6.438,6.438,0,0,0-.31-1.47,7.66,7.66,0,0,1-4.68,1.1Z" fill="#263238"/>
      <path id="Path_455" data-name="Path 455" d="M227.15,233.13a2.71,2.71,0,0,0,1.6.33c1.21-.13,1.39-1.19,1.31-2.14a2.78,2.78,0,0,0-2.91,1.81Z" fill="#ff9abb"/>
      <path id="Path_456" data-name="Path 456" d="M250.78,226.67c-4.85-.6-3.79-8.24-3.79-8.24s-5.44-1.23-4.66-10.15c0,0-3.36,5-11,5.11-1.61,0,4.22-3.37,4.22-3.37s-7.1,4.89-18.57,1.16c-.81-.27,1.86-13.76,11.65-16.76s18.53,1.82,23.46,8.39c0,0,6.35,4,6.26,10.52S252.67,226.9,250.78,226.67Z" fill="#263238"/>
      <path id="Path_457" data-name="Path 457" d="M241.93,223.33a6.94,6.94,0,0,0-4.83-5.74,9.778,9.778,0,0,0-1-.22h0a5.51,5.51,0,0,0-.57-.06h-.47a6.93,6.93,0,0,0-6.49,4.48,1.659,1.659,0,0,1-.14.41c-.04.14-.11.38-.15.57a6.93,6.93,0,0,0,4.74,8.07,7.06,7.06,0,0,0,1.69.3,6.94,6.94,0,0,0,6.95-4.88,6.85,6.85,0,0,0,.3-2,7.135,7.135,0,0,0-.03-.93ZM240.81,226a6,6,0,1,1-5.45-7.75,5.5,5.5,0,0,1,1.47.27,6,6,0,0,1,3.98,7.48Z" fill="#605d82"/>
      <path id="Path_458" data-name="Path 458" d="M224.74,218.86a6.57,6.57,0,0,0-.52-1.47,5.22,5.22,0,0,0-1.86-2.11,3.87,3.87,0,0,0-1.44-.54h-.17a4.56,4.56,0,0,0-3.8,1.46h0a6.439,6.439,0,0,0-.9,1.1,3.729,3.729,0,0,0-.25.39h0a9.14,9.14,0,0,0-1.06,3,8.65,8.65,0,0,0,.2,3.82,1.591,1.591,0,0,0,.12.41h0a5.846,5.846,0,0,0,.34.76,6.1,6.1,0,0,0,.37.67,4.41,4.41,0,0,0,2.92,2,3.258,3.258,0,0,0,.45.05,4.68,4.68,0,0,0,3.58-1.57,7.33,7.33,0,0,0,1.42-2.05h0a9,9,0,0,0,.75-2.39v-.77h0v-.76a8.2,8.2,0,0,0-.15-2Zm-.79,3.39a3,3,0,0,1-.09.45.31.31,0,0,1,0,.11,7.772,7.772,0,0,1-.37,1.18c-.08.19-.16.37-.25.54h0c-1,2-2.71,3.2-4.42,2.92a4,4,0,0,1-3-3,7.75,7.75,0,0,1-.22-3.56,8.33,8.33,0,0,1,.93-2.65,6.221,6.221,0,0,1,1.05-1.37,3.84,3.84,0,0,1,2.83-1.24h.34a3.7,3.7,0,0,1,2.63,2.16,7,7,0,0,1,.66,3.42,5.872,5.872,0,0,1-.04,1.04Z" fill="#605d82"/>
      <path id="Path_459" data-name="Path 459" d="M228.56,223l.7-.6c-.89-1-3.09-2.61-5-1.1l.56.73C226.53,220.69,228.47,222.92,228.56,223Z" fill="#605d82"/>
      <path id="Path_460" data-name="Path 460" d="M258.66,229.82l.88-.28c-.13-.41-1.35-4-3.33-4.7s-14.27-1.51-14.8-1.54l-.06.92c3.56.25,13.13,1,14.56,1.5S258.34,228.83,258.66,229.82Z" fill="#605d82"/>
      <path id="Path_461" data-name="Path 461" d="M247.87,227.69s5.16-6.32,8.07-4.43-1.33,11.3-5,12.36a3.64,3.64,0,0,1-4.7-2.31Z" fill="#eb9481"/>
      <path id="Path_462" data-name="Path 462" d="M254.66,225.92c.05,0,.06.08,0,.1-2.57.82-4.06,3-5.15,5.36a2,2,0,0,1,3-.32.077.077,0,0,1-.07.13,2.25,2.25,0,0,0-2.51.59,10.92,10.92,0,0,0-1.32,1.9c-.13.21-.53.06-.42-.19a.14.14,0,0,1,0-.06C248.42,230.25,251.22,226,254.66,225.92Z" fill="#263238"/>
      <rect id="Rectangle_208" data-name="Rectangle 208" width="60.177" height="46.233" transform="translate(201.552 343.458) rotate(-85.996)" fill="#37474f"/>
      <rect id="Rectangle_209" data-name="Rectangle 209" width="21.86" height="6.62" transform="translate(238.313 289.625) rotate(-176.1)" fill="#a6a6a6"/>
      <path id="Path_463" data-name="Path 463" d="M221.9,281.88l2.69.18.2-3.04,6.53.44-.21,3.05,2.69.18.38-5.55-11.94-.81Z" fill="#a6a6a6"/>
      <path id="Path_464" data-name="Path 464" d="M294.19,350.18h-47c-3-.69-5.92-1.42-8.51-2.12-1.71-.46-3.29-.91-4.72-1.34l-1.87-.6a.84.84,0,0,1-.42-.31c-1.83-2.32,2.06-15.68,6.1-24.07,2-4.05,3.95-6.94,5.34-6.86a1,1,0,0,1,.25,0c.71.24,1.59.51,2.57.78l2.85.78c4.21,1.11,9.14,2.27,11.84,2.87h0c1.12.24,1.84.39,2,.39s.13-.29.07-.86c-.1-1.06-.49-3.07-1.06-5.73a.289.289,0,0,0,0-.09c-2.43-11.27-8.15-33.85-10.24-44.18-2.06-10.13-.57-13.18,2.52-12.3,2.87.82,7.12,5.05,11.17,10.1,8.4,10.47,15.84,24.82,21.23,38.87.07.21.16.43.24.64.17.44.34.9.5,1.34C293.66,325.45,296.83,342.57,294.19,350.18Z" fill="#eb9481"/>
      <path id="Path_465" data-name="Path 465" d="M201.47,304c-2.15,2.8-.06,5.79-.06,5.79a7.55,7.55,0,0,0-3.89,3.32c-1.41,2.76,2.3,6.18,2.3,6.18a9.3,9.3,0,0,0-3.55,4.15c-1.08,2.78,2.18,6.76,2.18,6.76a8.14,8.14,0,0,0-.82,5.62c1.3,5.06,8.9,7.48,13.72,9.06s20,1.56,22.86,1.85l10.43-30.84s-19.59-13.25-25.52-14.31C214.12,300.7,203.89,300.88,201.47,304Z" fill="#eb9481"/>
      <path id="Path_466" data-name="Path 466" d="M201.79,309.38c5.54-.33,10.88,1,16.28,2a.1.1,0,0,1,0,.19c-5.36-1.08-10.86-1.08-16.25-1.95a.13.13,0,0,1-.03-.24Z" fill="#263238"/>
      <path id="Path_467" data-name="Path 467" d="M200.06,318.93a14.431,14.431,0,0,1,3.73.63c1.3.32,2.6.66,3.89,1,2.59.72,5.16,1.49,7.7,2.35.12,0,.09.21,0,.18q-3.87-1.065-7.78-2c-1.3-.3-2.61-.59-3.92-.87a17,17,0,0,1-3.66-1,.19.19,0,0,1,.04-.29Z" fill="#263238"/>
      <path id="Path_468" data-name="Path 468" d="M198.56,330.24a10.13,10.13,0,0,1,3.32.75c1.18.35,2.35.7,3.52,1,2.36.68,4.71,1.35,7.08,2a.09.09,0,1,1,0,.18c-2.41-.59-4.83-1.14-7.24-1.76-1.19-.3-2.37-.6-3.55-.92a9.29,9.29,0,0,1-3.13-1.11.07.07,0,0,1,0-.14Z" fill="#263238"/>
      <path id="Path_469" data-name="Path 469" d="M295.59,350.18H241.45c-1.55-.37-2.53-.63-2.9-.73l-.17-.05.31-1.34.38-1.73,5.57-24.83,1.3-5.8.06-.25v-.07l2.81.68c4.35,1,12.26,2.83,12.62,2.56a.48.48,0,0,0,.14-.23.431.431,0,0,0,0-.11c.54-2.57-3.8-18.39-7.35-33-1.69-6.92-3.2-13.58-3.93-18.4-1.15-7.58-.09-11.14,2.47-11.29,2.71-.17,7.11,3.53,12.36,10.38a170.35,170.35,0,0,1,21.73,39.21c.08.22.17.44.26.66.15.4.31.78.45,1.18,4.15,10.95,7.26,22.81,8,34.62C295.84,344.89,296.14,347.81,295.59,350.18Z" fill="#605d82"/>
      <path id="Path_470" data-name="Path 470" d="M246.09,349.76c3.92-13.38,6-28,6.57-30.57a.1.1,0,0,0-.19,0c-.41,2.51-4.62,19-6.59,30.56C245.85,349.87,246.05,349.89,246.09,349.76Z" fill="#263238"/>
      <path id="Path_471" data-name="Path 471" d="M277.77,322.69a27.856,27.856,0,0,0-4-1.19c-1.26-.33-2.52-.69-3.78-1l-1.63-.43h.16l2.25-.13c.75-.05,1.5-.16,2.25-.15.12,0,.13-.2,0-.19-.75,0-1.49,0-2.24-.05s-1.55,0-2.33,0h-2c-1.22-.31-2.44-.61-3.66-.89-.34-2.48-1-5-1.54-7.42s-1.17-5.11-1.82-7.66-1.31-5-2.05-7.45c-.37-1.24-2.26-8.8-2.92-10.79,0-.12-.2-.08-.17.07.31,2,2.24,9.74,2.51,11,.2.91.4,1.82.61,2.74l-.1-.15-1.32-2.11a50.213,50.213,0,0,1-2.51-4.39c-.06-.13-.26,0-.2.1.69,1.57,1.35,3.15,2.1,4.69.38.77.77,1.53,1.19,2.27a11.933,11.933,0,0,0,1.37,2.11h0c.17.75.33,1.5.5,2.25.56,2.51,1.13,5,1.69,7.53.51,2.3.92,4.66,1.53,6.94-2.5-.56-5-1.07-7.54-1.59-1.28-.27-2.57-.53-3.85-.78s-2.84-.4-4.18-.76c-.12,0-.18.16-.07.18,1.36.27,2.71.81,4,1.16l3.78,1c2.67.69,5.34,1.39,8,2s5.32,1.17,8,1.71l4,.79a27.442,27.442,0,0,0,3.92.67A.07.07,0,0,0,277.77,322.69Z" fill="#263238"/>
      <path id="Path_472" data-name="Path 472" d="M242.28,350.18h-1.66c-1-.3-1.68-.49-2-.58a.09.09,0,0,1-.06-.15h.09C239.72,349.66,240.94,349.92,242.28,350.18Z" fill="#263238"/>
    </g>
    <g id="freepik--Plant--inject-37">
      <path id="Path_473" data-name="Path 473" d="M97.57,358.1a66.509,66.509,0,0,0-2.14,12.08c.11.2.09.95,0,.74,0,.67-1,.55-1-.11v-1.27c-2.36-2.93-5.79-4.78-8.56-7.33a16,16,0,0,1-4.69-7.46c-2.29-7.91-.14-16.3-2.9-24.19-2.38-6.81-6.65-12.73-10.27-18.9-3.81-6.52-6.63-13.37-6.91-21-.23-5.85.47-13.65,4.93-18,4.72-4.65,10.57-1.16,14.19,3,10.49,12,15.34,27.24,17.3,42.79,1.08,8.6,2.2,17.26,1.94,25.95a70,70,0,0,1-1.89,13.7Z" fill="#605d82"/>
      <path id="Path_474" data-name="Path 474" d="M95.48,373.34A149.208,149.208,0,0,0,95.19,349s0,0,0-.09c.13-6.59.65-13.15.4-19.75a117.209,117.209,0,0,0-2.91-21.18c0-.08-.14-.06-.12,0a138.579,138.579,0,0,1,2.29,20.71c.13,3.73.11,7.45-.09,11.17-.06,1.21-.18,2.43-.26,3.65h0a130.52,130.52,0,0,0-19.6-51.88c-.14-.21-.52,0-.39.24a135.41,135.41,0,0,1,16,38.46c-5-9.34-12.65-17-18.3-26,0-.05-.12,0-.09.05,5.08,10,13.46,17.87,18.8,27.72q1.39,6,2.26,12.13a136.12,136.12,0,0,1,1.21,16.86c-3.07-5.74-6.26-11.23-8.77-17.3-.07-.16-.3,0-.24.11,2.13,6.31,5,13.1,9,18.48,0,4-.1,8-.33,12-.63,10.64-2.45,21.14-3.29,31.75a.25.25,0,0,0,.49.05,244.2,244.2,0,0,0,4.23-32.84Z" fill="#263238"/>
      <path id="Path_475" data-name="Path 475" d="M84.17,291.26c0-.08-.14,0-.11.05,1.94,5.38,3,10.83,4.44,16.34a.2.2,0,1,0,.4-.07C88.33,302,86.34,296.41,84.17,291.26Z" fill="#263238"/>
      <path id="Path_476" data-name="Path 476" d="M133.54,313.79a81.88,81.88,0,0,1-4.47,9.18c-3.5,6.36-7.16,12.19-7.82,19.59-.29,3.3-.4,6.62-1.4,9.81a29.76,29.76,0,0,1-3.91,7.68c-3.8,5.52-8.54,10.29-12,16a67.4,67.4,0,0,0-8,19.31c-.09.37-.68.27-.59-.1a.13.13,0,0,0,0-.09.09.09,0,0,1,0-.07c-.56-15.87.71-31.87,5.55-47.07a163.611,163.611,0,0,1,7.69-19.58c2.59-5.52,5.83-10.82,10.38-14.94,2.95-2.66,9.36-7.7,13.56-5C134.48,309.78,134.33,311.81,133.54,313.79Z" fill="#605d82"/>
      <path id="Path_477" data-name="Path 477" d="M117.59,349.77A129.786,129.786,0,0,1,108.36,363c-1.53,2-3.09,4-4.63,6-.72,1-1.53,1.9-2.2,2.92.42-1.67.83-3.35,1.26-5,2-8,4-16.11,7.06-23.82a160.77,160.77,0,0,1,11-21.6c.11-.19-.19-.32-.3-.14-3.35,5.51-6.75,11-9.57,16.84a87.482,87.482,0,0,0-4.07,10,154.89,154.89,0,0,1,5.41-21.35h-.09a73,73,0,0,0-5.62,22.2h0q-1,3.1-1.91,6.24c-2.5,8.88-4.69,17.85-6.73,26.86A96.82,96.82,0,0,1,99.5,364.5a.1.1,0,1,0-.2,0,56.11,56.11,0,0,0-1.54,18.61c-.77,3.42-1.51,6.85-2.25,10.28-1.56,7.32-3.47,14.76-4.38,22.19a.15.15,0,0,0,.29,0c1.09-4,1.74-8.16,2.63-12.21s1.82-8.13,2.76-12.18c1.38-5.91,2.83-11.8,4.3-17.68,1-2.16,2.88-4.07,4.3-5.88,1.57-2,3.13-4,4.65-6a89.518,89.518,0,0,0,7.64-11.81.08.08,0,0,0-.11-.05Z" fill="#263238"/>
      <path id="Path_478" data-name="Path 478" d="M118.26,343a83.09,83.09,0,0,0-9,14.34c0,.07.07.14.11.07,3-4.76,6-9.55,9.05-14.32C118.45,343,118.32,342.91,118.26,343Z" fill="#263238"/>
      <path id="Path_479" data-name="Path 479" d="M50.7,328.84c2.06,3.54,4.41,7.79,3.52,12.05-.56,2.69-2.53,4.88-2.88,7.62-.8,6.06,5.24,10.07,9.61,12.93,10.9,7.15,25.85,13.53,27.83,28.13.07.52,1,.39.9-.12a.29.29,0,0,0,0-.09s.06-.05.06-.09a56,56,0,0,0-.21-22.3c-1.62-7.53-4.91-14.29-8.78-20.9-6.56-11.19-13.51-22.65-23.43-31.22-2.74-2.37-8.36-6.63-10.55-1.28S48.18,324.52,50.7,328.84Z" fill="#605d82"/>
      <path id="Path_480" data-name="Path 480" d="M60.68,352.56c7.22,7.82,18.71,12.21,24.93,21a87.88,87.88,0,0,0-19.16-36,.28.28,0,0,1,.4-.39A71,71,0,0,1,82.5,359.81a101,101,0,0,0-6.74-17.24c-.1-.21.2-.39.32-.19a65.75,65.75,0,0,1,7.27,19.39c8.19,19.84,9,43.1,7.24,64a.241.241,0,0,1-.48,0c.48-16.48.21-33.25-3.74-49.34-.08-.34-.17-.67-.26-1-6.77-9.43-18.2-13.8-25.56-22.76C60.48,352.6,60.6,352.47,60.68,352.56Z" fill="#263238"/>
      <path id="Path_481" data-name="Path 481" d="M59,345.84c3.8,3.48,7.53,7,11.33,10.52,0,0,0,.1-.06.07a55.8,55.8,0,0,1-11.49-10.36C58.65,345.91,58.85,345.7,59,345.84Z" fill="#263238"/>
      <path id="Path_482" data-name="Path 482" d="M58.4,330.76a119.128,119.128,0,0,0,11.35,15.61c.06.07,0,.16-.09.1A54.92,54.92,0,0,1,58.2,330.88C58.14,330.75,58.32,330.63,58.4,330.76Z" fill="#263238"/>
      <path id="Path_483" data-name="Path 483" d="M75.48,440.53H108.7l-4.47-44.7H80.6Z" fill="#455a64"/>
      <path id="Path_484" data-name="Path 484" d="M79.76,403.1h25.2l-.73-7.27H80.59Z" fill="#263238"/>
      <rect id="Rectangle_210" data-name="Rectangle 210" width="31.14" height="7.14" transform="translate(107.66 398.02) rotate(180)" fill="#455a64"/>
    </g>
  </g>
</svg>
