<svg xmlns="https://www.w3.org/2000/svg" width="135" height="135" viewBox="0 0 135 135">
  <g id="Group_44" data-name="Group 44" transform="translate(-3188.182 -441.603)">
    <rect id="Rectangle_148" data-name="Rectangle 148" width="135" height="135" rx="67.5" transform="translate(3188.182 441.603)" fill="rgba(199,10,220,0.05)"/>
    <path id="Path_383" data-name="Path 383" d="M3112,486.5c.11.44,1.156,4.855,4.625,6.4s10.866-.694,10.866-.694,6.4-2.158,9.48-5.7,5.7-13.255,3.7-21.116a20.9,20.9,0,0,0-7.709-11.637,51.67,51.67,0,0,0-10.327-4.162,29.257,29.257,0,0,0-3.7-.66s-2.42-.211-3.624-.188-8.618-.338-13.457.848a57.492,57.492,0,0,0-10.126,3.237c-2.444,1.09-10.313,5.533-14.218,10.543S3069.7,475.991,3068.6,482a74.328,74.328,0,0,0-1,20.038,99.631,99.631,0,0,0,3.605,18.935,35,35,0,0,0,3.906,8.216,27.113,27.113,0,0,0,3.194,4.421,31.856,31.856,0,0,0,5.491,5.187,54.356,54.356,0,0,0,7.625,4.122,25.4,25.4,0,0,0,8.2,1.686c3.82.1,11.479-.976,12.5-1.458.643-.3,8.427-2.3,13.083-5.642a33.328,33.328,0,0,0,7.53-6.943,37.156,37.156,0,0,0,3.83-5.928,29.153,29.153,0,0,0,2.326-6.156,16.473,16.473,0,0,0,.412-5.107,13.728,13.728,0,0,0-.748-3.67,5.259,5.259,0,0,0-3.293-2.806,4.243,4.243,0,0,0-2.591,0,2.383,2.383,0,0,0-1.241,1.4c-.159.378-.863,2.24-.863,2.24s-.675,1.944-1.133,2.834a23.617,23.617,0,0,1-1.457,2.887,16.949,16.949,0,0,1-2.509,3.3,24.554,24.554,0,0,1-2.823,2.657,27.4,27.4,0,0,1-7.336,4.463c-3.618,1.363-4.685,1.3-7.589.949s-5.158-2.431-5.871-2.987a39.825,39.825,0,0,1-5.349-7.524,47.213,47.213,0,0,1-3.53-7.662,61.993,61.993,0,0,1-3.006-12.677,99.381,99.381,0,0,1-1.039-11.122c-.053-3.222.771-10.908,2.2-14.524a25.147,25.147,0,0,1,3.58-6.706,21.253,21.253,0,0,1,7.208-5.452,27.556,27.556,0,0,1,7.022-2.28,38.892,38.892,0,0,1,5.518-.365,18.326,18.326,0,0,1,11.173,4.059,12.242,12.242,0,0,1,3.1,3.42s1.824,2.782,1.867,4.743.548,4.469-.728,6.065-1.1,1.6-2.328,2.007-2.689-1.277-2.689-1.277a9.578,9.578,0,0,0-2.782-1.824,7.312,7.312,0,0,0-4.423,0,10.349,10.349,0,0,0-4.7,3.557,11.128,11.128,0,0,0-1.156,3.918,21.844,21.844,0,0,0-.119,3.2A10.952,10.952,0,0,0,3112,486.5Z" transform="translate(150.821 12.28)" fill="#30043d"/>
  </g>
</svg>
